<svg width="24" height="25" viewBox="0 0 24 25" fill="none" xmlns="http://www.w3.org/2000/svg">
<path d="M16.5 3.11172C19.538 3.11172 22 5.61172 22 9.11172C22 16.1117 14.5 20.1117 12 21.6117C9.5 20.1117 2 16.1117 2 9.11172C2 5.61172 4.5 3.11172 7.5 3.11172C9.36 3.11172 11 4.11172 12 5.11172C13 4.11172 14.64 3.11172 16.5 3.11172ZM12.934 18.7157C13.815 18.1597 14.61 17.6067 15.354 17.0147C18.335 14.6447 20 12.0547 20 9.11172C20 6.75172 18.463 5.11172 16.5 5.11172C15.424 5.11172 14.26 5.68172 13.414 6.52572L12 7.93972L10.586 6.52572C9.74 5.68172 8.576 5.11172 7.5 5.11172C5.56 5.11172 4 6.76772 4 9.11172C4 12.0557 5.666 14.6447 8.645 17.0147C9.39 17.6067 10.185 18.1597 11.066 18.7147C11.365 18.9037 11.661 19.0847 12 19.2867C12.339 19.0847 12.635 18.9037 12.934 18.7157V18.7157Z" fill="white"/>
</svg>
